<svg width="25" height="25" viewBox="0 0 25 25" fill="none" xmlns="http://www.w3.org/2000/svg">
<path d="M17.8021 11.4583H22.8646C22.7003 9.82508 22.1505 8.2542 21.2604 6.87499C20.359 7.30603 19.5743 7.94737 18.9724 8.74499C18.3706 9.54262 17.9692 10.4732 17.8021 11.4583ZM7.19791 11.4583C7.0308 10.4732 6.62942 9.54262 6.02758 8.74499C5.42573 7.94737 4.64104 7.30603 3.73958 6.87499C2.8495 8.2542 2.29969 9.82508 2.13541 11.4583H7.19791ZM15.6979 11.4583C15.8609 10.1571 16.3289 8.91283 17.0639 7.82674C17.7988 6.74066 18.7798 5.8435 19.9271 5.20832C18.2248 3.467 15.9646 2.37932 13.5417 2.13541V11.4583H15.6979ZM9.30208 11.4583H11.4583V2.13541C9.03476 2.37706 6.77387 3.46509 5.07291 5.20832C6.22018 5.8435 7.20122 6.74066 7.93614 7.82674C8.67105 8.91283 9.13907 10.1571 9.30208 11.4583ZM15.6979 13.5417H13.5417V22.8646C15.9652 22.6229 18.2261 21.5349 19.9271 19.7917C18.7798 19.1565 17.7988 18.2593 17.0639 17.1732C16.3289 16.0872 15.8609 14.8429 15.6979 13.5417ZM3.73958 18.125C4.63889 17.691 5.42175 17.0488 6.0232 16.2517C6.62465 15.4546 7.02736 14.5255 7.19791 13.5417H2.13541C2.30208 15.2187 2.875 16.7812 3.73958 18.125ZM17.8021 13.5417C17.9692 14.5268 18.3706 15.4574 18.9724 16.255C19.5743 17.0526 20.359 17.6939 21.2604 18.125C22.1505 16.7458 22.7003 15.1749 22.8646 13.5417H17.8021ZM9.30208 13.5417C9.13907 14.8429 8.67105 16.0872 7.93614 17.1732C7.20122 18.2593 6.22018 19.1565 5.07291 19.7917C6.77524 21.533 9.03539 22.6207 11.4583 22.8646V13.5417H9.30208Z" fill="#847D7D"/>
</svg>
