<svg width="25" height="25" viewBox="0 0 25 25" fill="none" xmlns="http://www.w3.org/2000/svg">
<g clip-path="url(#clip0_4_269)">
<path d="M22.2902 7.89766L22.6922 7.23438C22.6922 7.23438 23.0461 6.64766 23.0461 5.85977C23.0461 3.95117 21.225 4.00156 21.225 4.00156L17.2574 2.92148L15.093 0.78125L12.2449 1.55664L11.3109 1.30234L10.6012 2.0043L6.50078 3.1207C6.50078 3.1207 4.92266 3.07734 4.92266 4.73125C4.92266 5.41406 5.22969 5.92266 5.22969 5.92266L5.75742 6.79375L5.29375 7.25156L3.00469 7.875C3.00469 7.875 1.18359 7.82461 1.18359 9.7332C1.18724 10.1779 1.29126 10.616 1.48789 11.0148L0.78125 11.7137L1.15195 11.8605C1.16016 11.8805 1.16328 11.9027 1.1793 11.9187C1.89609 12.6371 1.83711 13.602 1.73477 14.123L1.30156 14.557L4.5832 16.1348L9.09023 23.5742C9.8125 24.7094 11.3457 23.9992 11.3457 23.9992L22.9273 18.4305L22.4941 17.9965C22.3918 17.4754 22.3328 16.5105 23.0496 15.7918C23.0656 15.7758 23.0688 15.7535 23.077 15.734L23.4477 15.5867L21.2941 13.4578L23.7668 12.2691L23.3914 11.893C23.3027 11.4414 23.2516 10.6051 23.873 9.98242C23.8867 9.96836 23.8891 9.94961 23.8965 9.93203L24.2188 9.8043L22.2902 7.89766ZM20.0695 4.44648L19.5812 5.21914L18.318 3.96992L20.0695 4.44648ZM15.3031 2.79063L17.1168 4.7293L10.5586 7.09922L9.00977 4.69453L15.3031 2.79063ZM6.15 7.44219L10.6254 14.8293L2.09922 11.4473L6.15 7.44219ZM4.28477 8.24961L3.75937 8.76914L3.54922 8.44688L4.28477 8.24961ZM2.62578 8.65352L3.11484 9.40625L2.05508 10.4539C1.97169 10.2227 1.92798 9.97901 1.92578 9.7332C1.92578 9.01992 2.27969 8.74844 2.62578 8.65352ZM2.01328 14.4633L2.01914 14.4406L11.8422 18.7402L2.09609 14.0941C2.10508 14.0414 2.11211 13.9832 2.11953 13.9246L9.74961 17.1199L2.14609 13.559C2.14803 13.3962 2.1368 13.2336 2.1125 13.0727L9.17461 15.9809L2.01758 12.6563C1.97164 12.5023 1.91012 12.3535 1.83398 12.2121L11.5539 16.3625L11.775 16.7273C12.2309 17.4438 13.0578 17.3113 13.4746 17.1871C14.0508 17.4715 15.0836 18.1293 14.8191 19.0984C14.6797 19.6109 14.373 19.8594 13.882 19.8594C13.3848 19.8594 12.8883 19.5992 12.8832 19.5957L2.01328 14.4633ZM11.7969 19.6035L11.0289 19.9215L10.3766 18.9203L11.7969 19.6035ZM8.82266 21.7055L5.80352 16.7215L8.8043 18.1641L10.2234 20.3484C9.65117 20.593 9.01172 21.1512 8.82266 21.7055ZM22.1168 16.9461C22.0925 17.107 22.0813 17.2697 22.0832 17.4324L14.4797 20.9934L22.1098 17.798C22.1172 17.8563 22.1238 17.9148 22.1332 17.9676L12.3871 22.6141L22.2102 18.3145C22.2123 18.3219 22.2143 18.3295 22.216 18.3371L11.3461 23.4688C11.341 23.4723 10.8453 23.7324 10.3473 23.7324C9.85586 23.7324 9.54961 23.4836 9.41016 22.9715C9.05156 21.6562 11.0906 20.9105 11.1211 20.8992L12.9082 20.1367C13.1 20.2184 14.4684 20.7555 15.1391 19.7012L15.5621 19.0035L22.3957 16.0855C22.3196 16.227 22.258 16.3758 22.2117 16.5297L15.0547 19.8543L22.1168 16.9461ZM22.1301 15.3207L16.3391 17.7207L17.9461 15.068L20.5895 13.7973L22.1301 15.3207ZM23.0648 10.982C23.0441 11.1215 23.0343 11.2625 23.0355 11.4035L16.4465 14.4895L23.059 11.7203C23.0656 11.7707 23.0711 11.8219 23.0793 11.8672L14.6324 15.8938L23.1457 12.1676C23.1478 12.174 23.1495 12.1805 23.1508 12.1871L13.7301 16.6352C13.7258 16.6379 13.2957 16.8637 12.8645 16.8637C12.4383 16.8637 12.173 16.6477 12.0523 16.2039C11.7414 15.0641 13.5086 14.418 13.5352 14.4082L23.3063 10.2363C23.2404 10.359 23.1871 10.4881 23.1473 10.6215L16.9441 13.5027L23.0648 10.982Z" fill="#847D7D"/>
</g>
<defs>
<clipPath id="clip0_4_269">
<rect width="25" height="25" fill="white"/>
</clipPath>
</defs>
</svg>
