<svg width="17" height="17" viewBox="0 0 17 17" fill="none" xmlns="http://www.w3.org/2000/svg">
<path d="M15.2669 2.83333C15.2026 2.8267 15.1377 2.8267 15.0733 2.83333H1.85111C1.76636 2.83464 1.68218 2.84734 1.60083 2.87111L8.42444 9.66639L15.2669 2.83333Z" fill="#F8F8F8"/>
<path d="M15.9658 3.48972L9.09027 10.3369C8.91331 10.5128 8.67394 10.6116 8.42443 10.6116C8.17492 10.6116 7.93555 10.5128 7.7586 10.3369L0.944433 3.54167C0.923484 3.61866 0.912377 3.69799 0.911377 3.77778V13.2222C0.911377 13.4727 1.01088 13.7129 1.188 13.89C1.36512 14.0672 1.60534 14.1667 1.85582 14.1667H15.078C15.3285 14.1667 15.5687 14.0672 15.7459 13.89C15.923 13.7129 16.0225 13.4727 16.0225 13.2222V3.77778C16.0187 3.67939 15.9996 3.5822 15.9658 3.48972ZM2.50277 13.2222H1.84638V12.5469L5.27943 9.14222L5.94527 9.80806L2.50277 13.2222ZM15.0686 13.2222H14.4075L10.965 9.80806L11.6308 9.14222L15.0639 12.5469L15.0686 13.2222Z" fill="#F8F8F8"/>
</svg>
