<svg width="25" height="25" viewBox="0 0 25 25" fill="none" xmlns="http://www.w3.org/2000/svg">
<path d="M18.1979 9.03124H19.7917V23.9583H18.1979V13.125C17.3646 12.9583 16.5833 12.6458 15.8437 12.1979C15.1042 11.75 14.4792 11.2292 13.9479 10.625L13.3021 13.8229L15.625 16.1146V23.9583H13.5417V17.7083L11.2083 15.4167L9.26041 23.9583H7.01041C7.01041 23.9583 10.2708 7.52082 10.3021 7.38541C10.4167 6.88541 10.6458 6.49999 11.0312 6.24999C11.4167 5.96874 11.8021 5.83332 12.1979 5.83332C12.6042 5.83332 12.9792 5.92707 13.3229 6.11457C13.6771 6.29166 13.9479 6.55207 14.1458 6.88541L15.25 8.58332C15.5521 9.14582 15.9583 9.63541 16.4687 10.0312C16.9792 10.4271 17.5625 10.7292 18.1979 10.9375V9.03124ZM8.90624 6.13541L7.70833 5.88541C7.11458 5.72916 6.57291 5.85416 6.08333 6.18749C5.60416 6.52082 5.31249 6.97916 5.20833 7.58332L4.36458 11.7292C4.33333 12.0312 4.39583 12.3021 4.56249 12.5521C4.72916 12.8021 4.94791 12.9375 5.20833 12.9792L7.51041 13.4271L8.90624 6.13541ZM13.5417 1.04166C12.3958 1.04166 11.4583 1.97916 11.4583 3.12499C11.4583 4.27082 12.3958 5.20832 13.5417 5.20832C14.6875 5.20832 15.625 4.28124 15.625 3.12499C15.625 1.96874 14.6979 1.04166 13.5417 1.04166Z" fill="#847D7D"/>
</svg>
