<svg width="20" height="17" viewBox="0 0 20 17" fill="none" xmlns="http://www.w3.org/2000/svg">
<g clip-path="url(#clip0_3_86)">
<path d="M9.31167 4.9227L3.19001 9.96459V15.4063C3.19001 15.5471 3.24598 15.6823 3.34561 15.7819C3.44524 15.8815 3.58037 15.9375 3.72126 15.9375L7.442 15.9279C7.58244 15.9272 7.71688 15.8709 7.81594 15.7713C7.91499 15.6718 7.9706 15.5371 7.9706 15.3966V12.2188C7.9706 12.0779 8.02657 11.9427 8.1262 11.8431C8.22583 11.7435 8.36095 11.6875 8.50185 11.6875H10.6268C10.7677 11.6875 10.9029 11.7435 11.0025 11.8431C11.1021 11.9427 11.1581 12.0779 11.1581 12.2188V15.3943C11.1579 15.4642 11.1715 15.5335 11.1981 15.5981C11.2247 15.6628 11.2638 15.7215 11.3131 15.771C11.3625 15.8205 11.4211 15.8598 11.4857 15.8866C11.5502 15.9134 11.6194 15.9272 11.6893 15.9272L15.4088 15.9375C15.5497 15.9375 15.6848 15.8815 15.7844 15.7819C15.884 15.6823 15.94 15.5471 15.94 15.4063V9.96094L9.81968 4.9227C9.74773 4.8647 9.65809 4.83307 9.56568 4.83307C9.47326 4.83307 9.38362 4.8647 9.31167 4.9227ZM18.9814 8.34959L16.2056 6.06157V1.4626C16.2056 1.35693 16.1637 1.25558 16.0889 1.18086C16.0142 1.10614 15.9129 1.06416 15.8072 1.06416H13.9478C13.8422 1.06416 13.7408 1.10614 13.6661 1.18086C13.5914 1.25558 13.5494 1.35693 13.5494 1.4626V3.87348L10.5767 1.42774C10.2914 1.19298 9.93346 1.06463 9.56402 1.06463C9.19457 1.06463 8.8366 1.19298 8.55132 1.42774L0.146613 8.34959C0.106267 8.38294 0.0728875 8.42391 0.048381 8.47016C0.0238744 8.51641 0.00872144 8.56704 0.00378792 8.61915C-0.0011456 8.67126 0.004237 8.72383 0.0196282 8.77386C0.0350193 8.82389 0.0601174 8.8704 0.0934883 8.91073L0.940168 9.94002C0.973448 9.98049 1.01438 10.014 1.06063 10.0386C1.10687 10.0632 1.15752 10.0785 1.20967 10.0835C1.26183 10.0886 1.31446 10.0833 1.36456 10.0679C1.41466 10.0526 1.46124 10.0275 1.50163 9.99414L9.31167 3.56137C9.38362 3.50337 9.47326 3.47175 9.56568 3.47175C9.65809 3.47175 9.74773 3.50337 9.81968 3.56137L17.6301 9.99414C17.6704 10.0275 17.7169 10.0526 17.7669 10.068C17.8169 10.0834 17.8695 10.0888 17.9216 10.0838C17.9737 10.0789 18.0244 10.0638 18.0706 10.0393C18.1169 10.0147 18.1578 9.98137 18.1912 9.94102L19.0379 8.91172C19.0712 8.87116 19.0962 8.82442 19.1114 8.77417C19.1266 8.72392 19.1317 8.67116 19.1265 8.61892C19.1213 8.56669 19.1057 8.516 19.0808 8.46978C19.0559 8.42356 19.0222 8.38271 18.9814 8.34959Z" fill="#F8F8F8"/>
</g>
<defs>
<clipPath id="clip0_3_86">
<rect width="19.13" height="17" fill="white"/>
</clipPath>
</defs>
</svg>
