<svg width="25" height="25" viewBox="0 0 25 25" fill="none" xmlns="http://www.w3.org/2000/svg">
<path d="M19.9838 3.76999C19.9544 3.59373 19.8876 3.42582 19.7878 3.27757C19.688 3.12933 19.5576 3.00419 19.4054 2.91061C19.2532 2.81702 19.0827 2.75716 18.9054 2.73506C18.728 2.71296 18.548 2.72913 18.3775 2.78249L9.6275 5.51624C9.37308 5.59567 9.1507 5.75434 8.99284 5.9691C8.83497 6.18386 8.74989 6.44346 8.75 6.70999V16.875C8.18683 16.4526 7.49754 16.2328 6.79381 16.251C6.09008 16.2693 5.41314 16.5247 4.87267 16.9758C4.3322 17.4268 3.95986 18.0472 3.81597 18.7363C3.67209 19.4254 3.7651 20.1429 4.07992 20.7725C4.39474 21.4022 4.91294 21.9071 5.55056 22.2054C6.18817 22.5038 6.90785 22.5781 7.59298 22.4164C8.27812 22.2547 8.88857 21.8663 9.32544 21.3143C9.76231 20.7623 10 20.079 10 19.375V10.46L18.75 7.72499V14.375C18.1868 13.9526 17.4975 13.7328 16.7938 13.751C16.0901 13.7693 15.4131 14.0247 14.8727 14.4758C14.3322 14.9268 13.9599 15.5472 13.816 16.2363C13.6721 16.9254 13.7651 17.6429 14.0799 18.2725C14.3947 18.9022 14.9129 19.4071 15.5506 19.7054C16.1882 20.0038 16.9078 20.0781 17.593 19.9164C18.2781 19.7547 18.8886 19.3663 19.3254 18.8143C19.7623 18.2623 20 17.579 20 16.875V3.97499C20 3.90499 19.9938 3.83749 19.9838 3.76999Z" fill="#847D7D"/>
</svg>
