<svg width="15" height="15" viewBox="0 0 15 15" fill="none" xmlns="http://www.w3.org/2000/svg">
<path d="M8.20833 4.66667C8.77192 4.66667 9.31242 4.89055 9.71094 5.28906C10.1095 5.68758 10.3333 6.22808 10.3333 6.79167C10.3333 6.97953 10.408 7.1597 10.5408 7.29253C10.6736 7.42537 10.8538 7.5 11.0417 7.5C11.2295 7.5 11.4097 7.42537 11.5425 7.29253C11.6754 7.1597 11.75 6.97953 11.75 6.79167C11.75 5.85236 11.3769 4.95152 10.7127 4.28733C10.0485 3.62314 9.14764 3.25 8.20833 3.25C8.02047 3.25 7.8403 3.32463 7.70747 3.45747C7.57463 3.5903 7.5 3.77047 7.5 3.95833C7.5 4.14619 7.57463 4.32636 7.70747 4.4592C7.8403 4.59204 8.02047 4.66667 8.20833 4.66667Z" fill="#F8F8F8"/>
<path d="M8.20832 1.83333C9.52335 1.83333 10.7845 2.35573 11.7144 3.2856C12.6443 4.21546 13.1667 5.47664 13.1667 6.79167C13.1667 6.97953 13.2413 7.1597 13.3741 7.29253C13.507 7.42537 13.6871 7.5 13.875 7.5C14.0629 7.5 14.243 7.42537 14.3759 7.29253C14.5087 7.1597 14.5833 6.97953 14.5833 6.79167C14.5833 5.10091 13.9117 3.47941 12.7161 2.28386C11.5206 1.08832 9.89908 0.416667 8.20832 0.416667C8.02046 0.416667 7.84029 0.491295 7.70746 0.624133C7.57462 0.756971 7.49999 0.937139 7.49999 1.125C7.49999 1.31286 7.57462 1.49303 7.70746 1.62587C7.84029 1.75871 8.02046 1.83333 8.20832 1.83333ZM14.4062 10.2696C14.3673 10.1559 14.3 10.0539 14.2108 9.9734C14.1216 9.89285 14.0133 9.83634 13.8962 9.80917L9.64624 8.83875C9.53088 8.81259 9.4108 8.81574 9.29697 8.84791C9.18314 8.88008 9.07918 8.94025 8.99457 9.02292C8.89541 9.115 8.88832 9.12208 8.42791 10.0004C6.90017 9.29645 5.67603 8.06727 4.97832 6.53667C5.87791 6.08333 5.88499 6.08333 5.97707 5.97708C6.05974 5.89248 6.11991 5.78852 6.15208 5.67468C6.18425 5.56085 6.1874 5.44078 6.16124 5.32542L5.19082 1.125C5.16366 1.00791 5.10714 0.899659 5.02659 0.810438C4.94604 0.721216 4.84412 0.65396 4.73041 0.615C4.56499 0.555918 4.39417 0.513213 4.22041 0.4875C4.04138 0.445989 3.85868 0.422262 3.67499 0.416667C2.81083 0.416667 1.98206 0.759955 1.371 1.37101C0.759944 1.98207 0.416656 2.81084 0.416656 3.675C0.420405 6.56692 1.57088 9.33932 3.61577 11.3842C5.66067 13.4291 8.43307 14.5796 11.325 14.5833C11.7529 14.5833 12.1766 14.4991 12.5719 14.3353C12.9672 14.1716 13.3264 13.9316 13.629 13.629C13.9315 13.3264 14.1715 12.9672 14.3353 12.5719C14.499 12.1766 14.5833 11.7529 14.5833 11.325C14.5835 11.1447 14.5693 10.9647 14.5408 10.7867C14.5111 10.6107 14.466 10.4377 14.4062 10.2696Z" fill="#F8F8F8"/>
</svg>
