<svg width="17" height="17" viewBox="0 0 17 17" fill="none" xmlns="http://www.w3.org/2000/svg">
<g clip-path="url(#clip0_3_84)">
<path d="M14.6247 5.33431C14.5141 5.31215 14.4311 5.30108 14.3758 5.30108C13.9664 5.30108 13.6123 5.43956 13.3135 5.71652C12.6385 5.4174 12.0078 5.17367 11.4213 4.98534C10.4586 4.67514 9.45162 4.42033 8.4004 4.22092C8.30081 3.95503 8.15143 3.73346 7.95225 3.55621C8.22888 2.24894 8.59958 1.06354 9.06433 0C10.4586 0.0997068 11.7394 0.504073 12.9068 1.2131C14.0742 1.92212 15.0176 2.85272 15.7368 4.00489C15.3274 4.44803 14.9567 4.89117 14.6247 5.33431ZM6.92315 3.174C6.63545 3.174 6.36435 3.25155 6.10984 3.40665C5.21353 2.74194 4.31169 2.17693 3.40432 1.71163C4.77645 0.670251 6.31455 0.0997068 8.01864 0C7.58708 0.963832 7.23852 2.02183 6.97295 3.174H6.92315ZM1.16356 4.2043C1.53978 3.57283 2.0156 2.97458 2.59101 2.40958C3.34346 2.79733 4.12358 3.27371 4.93136 3.83871C3.50391 3.80547 2.24798 3.92734 1.16356 4.2043ZM5.32972 4.86901C5.35185 5.21245 5.47081 5.51434 5.68658 5.77468C5.90236 6.03503 6.1707 6.20951 6.4916 6.29814C6.42521 7.07364 6.39201 7.81036 6.39201 8.50831C6.39201 8.99576 6.40861 9.55523 6.4418 10.1867C6.19836 10.2643 5.98259 10.3972 5.79447 10.5855C5.19694 10.3529 4.62153 10.087 4.06825 9.78788C4.18997 9.54415 4.25083 9.29488 4.25083 9.04008C4.25083 8.59694 4.09592 8.22027 3.78608 7.91007C3.47625 7.59987 3.10002 7.44477 2.6574 7.44477C2.17052 7.44477 1.76663 7.63311 1.44573 8.00978C0.980976 7.58879 0.566019 7.15119 0.200858 6.69697C0.300447 6.22059 0.449832 5.74976 0.649011 5.28446C1.999 4.90779 3.55924 4.76931 5.32972 4.86901ZM1.08057 9.17302C1.11376 9.58293 1.28251 9.92913 1.58681 10.2116C1.89111 10.4941 2.24798 10.6354 2.6574 10.6354C2.77912 10.6354 2.91191 10.6132 3.05576 10.5689C3.76395 10.9788 4.52194 11.3333 5.32972 11.6325V11.6989C5.32972 12.131 5.47634 12.4993 5.76958 12.804C6.06281 13.1087 6.42521 13.2721 6.85676 13.2942C7.1334 14.6458 7.52069 15.8811 8.01864 17C6.91209 16.9335 5.8664 16.6649 4.88157 16.194C3.89674 15.7232 3.04746 15.1111 2.33373 14.3578C1.62001 13.6044 1.0529 12.7182 0.632412 11.6989C0.211923 10.6797 0.00167847 9.61616 0.00167847 8.50831C0.00167847 8.49723 0.00721122 8.34767 0.0182767 8.05963C0.328111 8.44738 0.682207 8.81851 1.08057 9.17302ZM8.31741 12.4467C9.11413 12.5907 9.91637 12.6849 10.7242 12.7292C10.8016 12.9508 10.9233 13.1558 11.0893 13.3441C10.8348 14.5073 10.6799 15.6373 10.6246 16.7341C10.0602 16.8781 9.54015 16.9668 9.06433 17C8.54425 15.8146 8.14036 14.4741 7.85266 12.9785C8.05184 12.8456 8.20675 12.6683 8.31741 12.4467ZM13.4629 13.2444C13.6067 13.0671 13.7063 12.8788 13.7616 12.6794C14.5694 12.6129 15.3495 12.5077 16.102 12.3636C15.5708 13.405 14.8405 14.3079 13.911 15.0723C13.8114 14.4963 13.662 13.8869 13.4629 13.2444ZM10.7574 11.6657C9.98277 11.6214 9.21925 11.5217 8.46679 11.3666C8.34507 10.8126 8.02971 10.4304 7.52069 10.2199C7.47643 9.56631 7.4543 8.99576 7.4543 8.50831C7.4543 7.77713 7.4875 7.01825 7.55389 6.23167C7.57602 6.23167 7.60368 6.22059 7.63688 6.19844C7.67008 6.17628 7.69221 6.1652 7.70327 6.1652C8.13483 6.58618 8.51105 6.97393 8.83195 7.32845C9.79465 8.39198 10.6135 9.59954 11.2885 10.9511C11.0451 11.1395 10.868 11.3776 10.7574 11.6657ZM12.2346 13.826C12.2567 13.826 12.3176 13.8205 12.4172 13.8094C12.6053 14.4852 12.7436 15.1554 12.8321 15.8201C12.5112 16.0085 12.1239 16.1968 11.6703 16.3851C11.7477 15.521 11.8805 14.6624 12.0686 13.8094C12.1571 13.8205 12.2125 13.826 12.2346 13.826ZM12.1516 9.85435C12.1405 9.87651 12.1267 9.90974 12.1101 9.95406C12.0935 9.99837 12.0797 10.0316 12.0686 10.0538C11.3715 8.79081 10.5526 7.64418 9.61207 6.61388C9.26904 6.22613 8.85962 5.80515 8.3838 5.35093C8.39487 5.35093 8.40317 5.34262 8.4087 5.326L8.417 5.30108C9.3465 5.48941 10.2373 5.72206 11.0893 5.99902C11.6094 6.1652 12.1793 6.38677 12.7989 6.66373C12.7768 6.77452 12.7657 6.85761 12.7657 6.913C12.7657 7.24536 12.8653 7.55002 13.0645 7.82698C12.6994 8.52493 12.395 9.20072 12.1516 9.85435ZM12.9317 10.8182C13.0645 10.4304 13.1309 10.231 13.1309 10.2199C13.3522 9.66602 13.6289 9.07331 13.9608 8.44184C14.1047 8.48615 14.243 8.50831 14.3758 8.50831C14.752 8.50831 15.0895 8.38091 15.3883 8.1261C15.9305 8.50277 16.4616 8.92375 16.9817 9.38905C16.9153 10.0205 16.7825 10.6298 16.5833 11.217C15.676 11.4053 14.7188 11.5383 13.7118 11.6158C13.568 11.2613 13.308 10.9954 12.9317 10.8182ZM15.9692 6.89638C15.9692 6.53079 15.8475 6.19844 15.604 5.89932C15.8364 5.6002 16.0688 5.32877 16.3012 5.08504C16.6995 5.99348 16.9319 6.92962 16.9983 7.89345C16.6331 7.61649 16.279 7.36722 15.936 7.14565C15.9581 7.04594 15.9692 6.96285 15.9692 6.89638Z" fill="#F8F8F8"/>
</g>
<defs>
<clipPath id="clip0_3_84">
<rect width="17" height="17" fill="white"/>
</clipPath>
</defs>
</svg>
